<?xml version="1.0" encoding="UTF-8"?>
<svg xmlns="http://www.w3.org/2000/svg" viewBox="-4.000 -100.0 92.670 128.0" fill="currentColor">
  <path fill="currentColor" d="M42.334 9.7168C53.2715 9.7168 62.6465-2.00195 62.6465-14.502C62.6465-22.7051 57.9102-26.0742 51.2207-27.6367L51.2207-28.0273C55.7617-30.2246 56.4941-38.0859 52.3926-40.8203L52.3926-41.2109C58.9355-42.3828 62.207-46.3379 62.207-52.1484C62.207-63.0371 53.2227-72.0215 42.334-72.0215C31.3965-72.0215 22.4121-63.0371 22.4121-52.1484C22.4121-46.3379 25.6836-42.3828 32.2266-41.2109L32.2266-40.8203C28.125-38.0859 28.8574-30.2246 33.3984-28.0273L33.3984-27.6367C26.8555-26.0742 21.9727-22.7051 21.9727-14.502C21.9727-2.00195 31.3965 9.7168 42.334 9.7168ZM42.334 2.49023C34.6191 2.49023 29.0527-6.49414 29.0527-13.5254C29.0527-18.2617 31.6895-21.1426 37.207-21.1426L47.4609-21.1426C52.9297-21.1426 55.6152-18.2617 55.6152-13.5254C55.6152-6.49414 50.0488 2.49023 42.334 2.49023ZM36.0352-35.4004C36.0352-38.916 38.1836-40.8203 42.041-40.8203C42.2363-40.8203 42.4316-40.8203 42.6758-40.8203C46.4844-40.8203 48.584-38.916 48.584-35.4004C48.584-31.0547 45.752-27.3438 42.4805-27.3438C42.3828-27.3438 42.2363-27.3438 42.1387-27.3438C38.8672-27.3438 36.0352-31.0547 36.0352-35.4004ZM35.7422-47.5098C31.6895-47.5098 29.5898-49.2188 29.5898-52.4902C29.5898-59.082 35.498-64.7949 42.334-64.7949C49.1211-64.7949 55.0781-59.082 55.0781-52.4902C55.0781-49.2188 52.9785-47.5098 48.9258-47.5098ZM16.4551 7.71484C18.457 7.71484 19.9707 6.25 19.5801 3.75977L16.8945-14.1602C16.6016-16.2109 17.2852-17.041 19.8242-17.7734L33.3984-21.4844L33.3984-27.6367L15.918-23.4863C10.9863-22.3145 9.17969-19.9219 9.91211-15.4297L12.9883 4.24805C13.3301 6.39648 14.3066 7.71484 16.4551 7.71484ZM68.2129 7.71484C70.3125 7.71484 71.2891 6.39648 71.6309 4.24805L74.707-15.4297C75.4395-19.9219 73.6328-22.3145 68.7012-23.4863L51.2207-27.6367L51.2207-21.4844L64.8438-17.7734C67.3828-17.041 68.0664-16.2109 67.7734-14.1602L65.0391 3.75977C64.6484 6.25 66.1621 7.71484 68.2129 7.71484ZM33.3008-31.1035L33.3008-37.5977L21.7285-39.2578C19.4336-39.5996 17.9688-40.332 17.9688-42.9688L17.9688-54.9805C17.9688-57.0312 16.748-58.252 14.6484-58.252C12.5977-58.252 11.377-57.0312 11.377-54.9805L11.377-41.5527C11.377-36.7676 13.5254-33.9844 18.3105-33.3008ZM51.3672-31.1035L66.3574-33.3008C71.0938-33.9844 73.291-36.7676 73.291-41.5527L73.291-54.9805C73.291-57.0312 72.0703-58.252 69.9707-58.252C67.9199-58.252 66.6992-57.0312 66.6992-54.9805L66.6992-42.9688C66.6992-40.332 65.2344-39.5996 62.9395-39.2578L51.3672-37.5977ZM30.957-61.6699L34.4727-66.3086L31.25-68.6035C29.4434-69.873 29.248-71.6309 30.4688-73.8281L31.8359-76.1719C32.2754-77.002 32.373-77.3926 32.373-78.1738C32.373-79.8828 31.0547-81.1523 29.2969-81.1523C27.9297-81.1523 27.002-80.5176 26.1719-79.0039L24.4629-75.8789C22.0703-71.4355 22.9004-67.2363 26.709-64.5996ZM53.8574-61.6699L58.1543-64.5996C61.9141-67.2363 62.7441-71.4355 60.4004-75.8789L58.6426-79.0039C57.8613-80.5176 56.9336-81.1523 55.5664-81.1523C53.7598-81.1523 52.4414-79.8828 52.4414-78.1738C52.4414-77.3926 52.5391-77.002 52.9785-76.1719L54.3457-73.8281C55.6152-71.6309 55.3711-69.873 53.5645-68.6035L50.3418-66.3086Z"/>
</svg>
