<?xml version="1.0" encoding="UTF-8"?>
<svg xmlns="http://www.w3.org/2000/svg" viewBox="-4.000 -100.0 118.110 128.0" fill="currentColor">
  <path fill="currentColor" d="M26.6113-40.8203C23.2422-38.7695 26.0742-33.6426 29.7852-35.9863L40.6738-42.8223C43.0664-44.2871 42.9688-47.9492 40.6738-49.4141L29.7852-56.2012C26.0742-58.5938 23.2422-53.4668 26.6113-51.416L35.3516-46.0938ZM43.0176-36.2793C43.0176-34.7656 44.2383-33.4961 45.8008-33.4961L60.3516-33.4961C61.9141-33.4961 63.1348-34.7656 63.1348-36.2793C63.1348-37.8418 61.9141-39.0625 60.3516-39.0625L45.8008-39.0625C44.2383-39.0625 43.0176-37.8418 43.0176-36.2793ZM22.2168 0.390625L87.8906 0.390625C96.2402 0.390625 100.342-3.71094 100.342-11.9141L100.342-58.4961C100.342-66.6992 96.2402-70.8008 87.8906-70.8008L22.2168-70.8008C13.916-70.8008 9.76562-66.6992 9.76562-58.4961L9.76562-11.9141C9.76562-3.71094 13.916 0.390625 22.2168 0.390625ZM22.3145-6.68945C18.7988-6.68945 16.7969-8.59375 16.7969-12.2559L16.7969-58.1543C16.7969-61.8652 18.7988-63.7207 22.3145-63.7207L87.793-63.7207C91.3086-63.7207 93.3105-61.8652 93.3105-58.1543L93.3105-12.2559C93.3105-8.59375 91.3086-6.68945 87.793-6.68945Z"/>
</svg>
