<?xml version="1.0" encoding="UTF-8"?>
<svg xmlns="http://www.w3.org/2000/svg" viewBox="-4.000 -100.0 100.830 128.0" fill="currentColor">
  <path fill="currentColor" d="M13.8184-40.5762C16.1621-40.5762 17.8223-42.2852 17.8223-44.6289L17.8223-45.8984L16.9434-59.4727L26.123-49.707L37.4512-38.2324C38.2324-37.4512 39.209-37.0605 40.2832-37.0605C42.7734-37.0605 44.6289-38.7207 44.6289-41.2109C44.6289-42.3828 44.2383-43.457 43.4082-44.2383L32.0312-55.6152L22.2168-64.7949L35.8887-63.916L37.1094-63.916C39.4531-63.916 41.2598-65.5762 41.2598-67.9199C41.2598-70.2637 39.4531-71.9727 37.1094-71.9727L16.8457-71.9727C12.3535-71.9727 9.76562-69.3848 9.76562-64.8926L9.76562-44.6289C9.76562-42.334 11.4746-40.5762 13.8184-40.5762ZM55.7129 1.46484L75.9766 1.46484C80.4688 1.46484 83.0566-1.12305 83.0566-5.61523L83.0566-25.8789C83.0566-28.1738 81.3477-29.9316 79.0039-29.9316C76.709-29.9316 75-28.2227 75-25.8789L75-24.6094L75.9277-11.0352L66.748-20.8008L55.3711-32.2754C54.6387-33.0566 53.6133-33.4473 52.5391-33.4473C50.0488-33.4473 48.1934-31.7871 48.1934-29.2969C48.1934-28.125 48.6328-27.0508 49.4141-26.2695L60.791-14.8926L70.6055-5.71289L56.9824-6.5918L55.7129-6.5918C53.3691-6.5918 51.6113-4.93164 51.5625-2.58789C51.5625-0.244141 53.3691 1.46484 55.7129 1.46484Z"/>
</svg>
