<?xml version="1.0" encoding="UTF-8"?>
<svg xmlns="http://www.w3.org/2000/svg" viewBox="-4.000 -100.0 98.670 128.0" fill="currentColor">
  <path fill="currentColor" d="M22.2168 0.390625L68.457 0.390625C76.8066 0.390625 80.9082-3.71094 80.9082-11.9141L80.9082-58.4961C80.9082-66.6992 76.8066-70.8008 68.457-70.8008L22.2168-70.8008C13.916-70.8008 9.76562-66.6992 9.76562-58.4961L9.76562-11.9141C9.76562-3.71094 13.916 0.390625 22.2168 0.390625ZM22.3145-6.68945C18.7988-6.68945 16.7969-8.59375 16.7969-12.2559L16.7969-58.1543C16.7969-61.8652 18.7988-63.7207 22.3145-63.7207L68.3594-63.7207C71.875-63.7207 73.877-61.8652 73.877-58.1543L73.877-12.2559C73.877-8.59375 71.875-6.68945 68.3594-6.68945ZM51.7578-45.6543L44.0918-38.4766L31.4941-25.9277C30.8594-25.293 30.4199-24.4629 30.4199-23.584C30.4199-21.6309 31.6895-20.3613 33.6426-20.3613C34.668-20.3613 35.498-20.752 36.084-21.3379L48.6816-33.9355L55.8105-41.6016C59.0332-45.0195 55.0781-48.6816 51.7578-45.6543ZM53.9062-34.5215L53.9062-29.0039C53.9062-26.9531 55.1758-25.6348 57.0801-25.6348C59.0332-25.6348 60.3027-27.0996 60.3027-29.1016L60.3027-46.4844C60.3027-49.1211 58.8867-50.0977 56.6406-50.0977L39.1113-50.0977C37.0605-50.0977 35.7422-48.8281 35.7422-46.9238C35.7422-45.0195 37.1094-43.75 39.209-43.75L44.7754-43.75L55.1758-45.1172Z"/>
</svg>
