<?xml version="1.0" encoding="UTF-8"?>
<svg xmlns="http://www.w3.org/2000/svg" viewBox="-4.000 -100.0 100.530 128.0" fill="currentColor">
  <path fill="currentColor" d="M46.2402 4.15039C68.0176 4.15039 85.6934-13.4766 85.6934-35.2539C85.6934-57.0312 68.0176-74.6582 46.2402-74.6582C24.5117-74.6582 6.83594-57.0312 6.83594-35.2539C6.83594-13.4766 24.5117 4.15039 46.2402 4.15039ZM46.2402-3.27148C28.5645-3.27148 14.3066-17.5781 14.3066-35.2539C14.3066-52.9297 28.5645-67.2363 46.2402-67.2363C63.916-67.2363 78.2227-52.9297 78.2227-35.2539C78.2227-17.5781 63.916-3.27148 46.2402-3.27148ZM46.2402-54.6875C44.3848-54.6875 42.7734-53.125 42.7734-51.3184L42.7734-31.1523L43.1152-22.7051C43.2129-20.752 44.7266-19.6777 46.2402-19.6777C47.8027-19.6777 49.3652-20.752 49.4141-22.7051L49.7559-31.1523L49.7559-51.3184C49.7559-53.125 48.1445-54.6875 46.2402-54.6875ZM46.2402-15.8203C47.168-15.8203 47.9004-16.1133 48.7793-16.9922L61.3281-28.9551C61.9629-29.6387 62.3535-30.3223 62.3535-31.25C62.3535-33.0566 60.9863-34.3262 59.1797-34.3262C58.3008-34.3262 57.4219-33.9844 56.7871-33.3008L51.416-27.4414L46.2402-21.875L46.2402-21.875L41.0645-27.4414L35.6934-33.3008C35.1074-33.9844 34.1309-34.3262 33.3008-34.3262C31.4941-34.3262 30.1758-33.0566 30.1758-31.25C30.1758-30.3223 30.5176-29.6387 31.2012-28.9551L43.7012-16.9922C44.6289-16.1133 45.3613-15.8203 46.2402-15.8203Z"/>
</svg>
