<?xml version="1.0" encoding="UTF-8"?>
<svg xmlns="http://www.w3.org/2000/svg" viewBox="-4.000 -100.0 89.830 128.0" fill="currentColor">
  <path fill="currentColor" d="M40.918 1.75781C59.7656 1.75781 75-13.5254 75-32.373C75-34.3262 73.3887-35.8887 71.4844-35.8887C69.5801-35.8887 67.9688-34.3262 67.9688-32.373C67.9688-17.4316 55.8594-5.37109 40.918-5.37109C25.9766-5.37109 13.8672-17.4316 13.8672-32.373C13.8672-47.3145 25.9766-59.4238 40.918-59.4238C44.0918-59.4238 47.1191-58.9355 49.9512-57.9102C52.1973-57.0312 54.8828-58.3008 54.8828-61.084C54.8828-63.3789 53.1738-64.1113 52.0508-64.502C48.584-65.7715 44.8242-66.4062 40.918-66.4062C22.0703-66.4062 6.83594-51.1719 6.83594-32.3242C6.83594-13.5254 22.0703 1.75781 40.918 1.75781ZM50.6836-61.6699L37.4512-48.6816C36.7676-48.0469 36.4746-47.1191 36.4746-46.2402C36.4746-44.2383 37.9883-42.7246 39.8926-42.7246C41.0156-42.7246 41.7969-43.1152 42.4316-43.7012L57.8613-59.1309C58.5449-59.8145 58.8867-60.6445 58.8867-61.6699C58.8867-62.5977 58.4961-63.5254 57.8613-64.1602L42.4316-79.7852C41.7969-80.4199 40.9668-80.8594 39.8926-80.8594C37.9883-80.8594 36.4746-79.248 36.4746-77.2461C36.4746-76.3184 36.7676-75.3906 37.4023-74.7559Z"/>
</svg>
