<?xml version="1.0" encoding="UTF-8"?>
<svg xmlns="http://www.w3.org/2000/svg" viewBox="-4.000 -100.0 86.130 128.0" fill="currentColor">
  <path fill="currentColor" d="M39.0625 1.12305C40.1367 1.12305 41.1621 0.634766 41.9922-0.244141L67.1387-25.4395C67.9688-26.3672 68.3594-27.2949 68.3594-28.3203C68.3594-30.4688 66.748-32.1777 64.5508-32.1777C63.5254-32.1777 62.5-31.7871 61.8164-31.1035L54.834-24.3164L39.0137-6.88477L23.291-24.3164L16.3086-31.1035C15.625-31.7871 14.5996-32.1777 13.5742-32.1777C11.377-32.1777 9.76562-30.4688 9.76562-28.3203C9.76562-27.2949 10.1562-26.3672 10.9863-25.4395L36.1328-0.244141C36.9629 0.634766 37.9883 1.12305 39.0625 1.12305ZM39.0625-3.51562C41.1133-3.51562 42.5293-4.93164 42.5293-6.98242L43.0176-18.9941L43.0176-67.6758C43.0176-69.9707 41.3574-71.582 39.0625-71.582C36.7676-71.582 35.1074-69.9707 35.1074-67.6758L35.1074-18.9941L35.5957-6.98242C35.5957-4.93164 37.0117-3.51562 39.0625-3.51562Z"/>
</svg>
