<?xml version="1.0" encoding="UTF-8"?>
<svg xmlns="http://www.w3.org/2000/svg" viewBox="-4.000 -100.0 87.980 128.0" fill="currentColor">
  <path fill="currentColor" d="M70.2148-11.3281L70.2148-59.1797C70.2148-63.0371 68.0176-64.8926 65.3809-64.8926C64.1602-64.8926 62.9395-64.5508 61.7188-63.8672L21.5332-40.625C18.2617-38.7207 17.0898-37.3535 17.0898-35.2539C17.0898-33.1543 18.2617-31.7871 21.5332-29.8828L61.7188-6.64062C62.9395-5.95703 64.1602-5.61523 65.3809-5.61523C68.0176-5.61523 70.2148-7.4707 70.2148-11.3281ZM63.1836-15.0391C63.1836-14.6484 62.9395-14.3555 62.5977-14.3555C62.4512-14.3555 62.3047-14.4043 62.207-14.4531L27.5391-34.7168C27.2461-34.8633 27.1484-35.0586 27.1484-35.2539C27.1484-35.4492 27.2461-35.6445 27.5391-35.791L62.207-56.0547C62.3047-56.1035 62.4512-56.1523 62.5977-56.1523C62.9395-56.1523 63.1836-55.8594 63.1836-55.4688ZM13.5254-5.61523C15.625-5.61523 17.2852-7.22656 17.2852-9.27734L17.2852-61.2305C17.2852-63.2812 15.625-64.8926 13.5254-64.8926C11.4258-64.8926 9.76562-63.2812 9.76562-61.2305L9.76562-9.27734C9.76562-7.22656 11.4258-5.61523 13.5254-5.61523Z"/>
</svg>
