<?xml version="1.0" encoding="UTF-8"?>
<svg xmlns="http://www.w3.org/2000/svg" viewBox="-4.000 -100.0 113.370 128.0" fill="currentColor">
  <path fill="currentColor" d="M9.76562-6.29883C9.76562-2.68555 12.1582-1.31836 14.7461-1.31836C16.2109-1.31836 17.4805-2.14844 19.1895-3.17383C23.4863-5.71289 28.2715-7.32422 33.0566-7.27539C38.3301-7.27539 43.5059-5.37109 47.7539-1.46484C49.707 0.292969 51.0742 0.878906 52.6855 0.878906C54.2969 0.878906 55.7129 0.292969 57.6172-1.46484C61.8652-5.37109 67.041-7.27539 72.3145-7.27539C77.0996-7.32422 81.9336-5.71289 86.1816-3.17383C87.8906-2.14844 89.1602-1.31836 90.6738-1.31836C93.2129-1.31836 95.6055-2.68555 95.6055-6.29883L95.6055-58.252C95.6055-58.8867 95.5566-59.4727 95.166-60.1562C91.748-66.1621 83.0566-71.4355 72.1191-71.4355C63.916-71.4355 56.5918-68.2617 52.6855-63.7207C48.7793-68.2617 41.4551-71.4355 33.252-71.4355C22.3633-71.4355 13.623-66.1621 10.2051-60.1562C9.81445-59.4727 9.76562-58.8867 9.76562-58.252ZM16.7969-9.86328L16.7969-57.2266C19.873-61.5234 26.416-64.4043 33.252-64.4043C40.332-64.4043 46.6309-61.4746 49.1699-57.0312L49.1699-9.27734C45.2148-12.3535 39.2578-14.3555 33.252-14.3555C27.002-14.3555 20.9473-12.6465 16.7969-9.86328ZM56.2012-9.27734L56.2012-57.0312C58.7402-61.4746 65.0879-64.4043 72.1191-64.4043C78.9551-64.4043 85.5469-61.5234 88.5742-57.2266L88.5742-9.86328C84.4727-12.6465 78.3691-14.3555 72.1191-14.3555C66.1133-14.3555 60.2051-12.3535 56.2012-9.27734Z"/>
</svg>
