<?xml version="1.0" encoding="UTF-8"?>
<svg xmlns="http://www.w3.org/2000/svg" viewBox="-4.000 -100.0 125.570 128.0" fill="currentColor">
  <path fill="currentColor" d="M6.83594-38.0859C6.83594-23.4863 16.8457-13.7695 31.8359-13.7695C46.6309-13.7695 56.4941-22.5586 56.4941-35.6445C56.4941-41.2109 54.5898-45.459 51.3672-48.1934C49.7559-49.5605 48.7793-50.0488 47.2656-50.0488C45.2148-50.0488 43.8965-48.8281 43.8965-47.0215C43.8965-44.7754 45.166-44.2383 47.2168-42.334C48.7305-40.918 49.5605-38.6719 49.5605-35.791C49.5605-26.8066 42.5293-20.8008 31.9824-20.8008C21.1426-20.8008 13.8672-27.7344 13.8672-38.1348C13.8672-44.1895 16.8945-49.6582 21.9238-52.7832L18.3105-58.8379C11.1328-54.3945 6.83594-46.582 6.83594-38.0859ZM17.7246-58.5938C17.7246-49.4629 24.0723-43.2617 33.6426-43.2617C35.5957-43.2617 37.1582-44.873 37.1582-46.7773C37.1582-48.7305 35.5957-50.293 33.6426-50.293C28.2715-50.293 24.7559-53.6621 24.7559-58.5938C24.7559-64.0625 29.3945-67.5293 35.0098-67.5293C37.8906-67.5293 40.9668-66.6016 43.75-64.5996L47.9004-70.3125C43.8477-73.2422 39.3066-74.5605 35.0586-74.5605C25.7324-74.5605 17.7246-68.2617 17.7246-58.5938ZM38.6719-59.5703C38.623-57.2754 40.1367-55.7617 42.1875-55.7617C44.0918-55.7617 45.5566-56.9824 45.6543-59.2285C45.9473-66.4062 51.0742-71.6797 58.4473-71.6797C62.9883-71.6797 66.8945-69.2383 68.457-65.918C68.75-65.3809 69.1895-65.332 70.0195-65.5273C71.1914-65.7715 72.5098-65.918 73.8281-65.918C80.5176-65.8691 87.3047-60.791 87.3047-52.4902C87.3047-33.9355 61.6699-37.0117 61.6699-18.9941C61.6699-10.2051 68.7012-4.6875 77.4902-4.6875C78.4668-4.6875 79.4922-4.73633 80.4688-4.78516C81.4453 1.5625 85.6445 8.20312 92.627 8.20312C102.783 8.20312 107.666-4.00391 107.666-14.8926C107.666-20.4102 107.373-23.9746 106.982-27.2949L99.9512-25.3906C100.342-22.2168 100.635-19.0918 100.635-14.9902C100.635-6.29883 96.9727 1.12305 92.627 1.12305C87.7441 1.12305 85.9863-5.51758 85.9863-10.2051C85.9863-10.5957 85.791-10.8398 85.2539-10.8398C84.082-10.8398 82.9102-10.8398 81.8359-10.8398C73.877-10.8398 68.7012-13.0371 68.7012-19.0918C68.7012-33.252 94.3359-29.3457 94.3359-52.4902C94.3359-64.7949 85.0098-72.998 74.8047-72.998C74.1699-72.998 73.2422-72.8516 72.2656-72.7051C68.9941-76.3672 63.9648-78.7109 58.4961-78.7109C47.2168-78.7109 39.1602-70.8008 38.6719-59.5703ZM84.2773-20.9961C84.2773-19.043 85.791-17.627 87.793-17.4805C101.562-16.4551 110.742-24.5117 110.742-37.5977C110.742-48.0469 103.271-56.1523 92.0898-57.8125L90.9668-50.8301C98.584-50.7324 103.711-45.459 103.711-37.5977C103.711-28.8574 97.3145-23.584 87.793-24.4629C85.791-24.6582 84.2773-22.9004 84.2773-20.9961ZM64.6484-16.3574C62.3047-15.4785 59.668-15.0879 57.0801-15.0879C50.3418-15.0879 43.6523-17.7734 41.2598-21.6309L35.4004-16.8945C39.502-11.7676 47.1191-8.05664 56.2988-8.05664C59.7168-8.05664 63.3789-8.54492 67.0898-9.66797ZM52.3438-44.4824L54.6875-37.8418C64.7949-39.7949 69.2383-46.1426 69.2383-55.3711C69.2383-57.3242 67.627-58.8867 65.7227-58.8867C63.7695-58.8867 62.207-57.3242 62.207-55.3711C62.207-49.2188 59.6191-45.5078 52.3438-44.4824Z"/>
</svg>
