<?xml version="1.0" encoding="UTF-8"?>
<svg xmlns="http://www.w3.org/2000/svg" viewBox="-4.000 -100.0 136.570 128.0" fill="currentColor">
  <path fill="currentColor" d="M9.76562-35.2539C9.76562-34.0332 10.3027-32.8125 11.3281-31.9336L36.4258-9.22852C38.3301-7.56836 40.7715-7.56836 42.2852-9.27734C43.8477-11.0352 43.6035-13.5254 41.8457-15.0879L19.6289-35.2539L41.8457-55.4199C43.6035-56.9824 43.8477-59.4727 42.2852-61.2305C40.7715-62.9395 38.3301-62.9395 36.4258-61.2793L11.3281-38.5742C10.3027-37.6953 9.76562-36.4746 9.76562-35.2539ZM53.8574 1.02539C56.2012 1.61133 58.3008 0.390625 58.9844-1.95312L77.8809-66.6016C78.4668-68.7012 77.4414-70.8008 75.0977-71.4355C72.8027-72.0215 70.8496-71.1426 70.0684-68.4082L51.3184-4.19922C50.6348-1.85547 51.3672 0.390625 53.8574 1.02539ZM118.799-35.2539C118.799-36.4746 118.311-37.6953 117.285-38.5742L92.1387-61.2793C90.2344-62.9395 87.8418-62.9395 86.2793-61.2305C84.7168-59.4727 84.9609-56.9824 86.7188-55.4199L108.984-35.2539L86.7188-15.0879C84.9609-13.5254 84.7168-11.0352 86.2793-9.27734C87.8418-7.56836 90.2344-7.56836 92.1387-9.22852L117.285-31.9336C118.311-32.8125 118.799-34.0332 118.799-35.2539Z"/>
</svg>
