<?xml version="1.0" encoding="UTF-8"?>
<svg xmlns="http://www.w3.org/2000/svg" viewBox="-4.000 -100.0 94.530 128.0" fill="currentColor">
  <path fill="currentColor" d="M43.2617 5.76172C63.3789 5.76172 76.7578-1.9043 76.7578-13.2324L76.7578-59.2285L69.7266-59.2285L69.7266-13.2324C69.7266-5.81055 59.1309-0.78125 43.2617-0.78125C27.3926-0.78125 16.7969-5.81055 16.7969-13.2324L16.7969-59.2285L9.76562-59.2285L9.76562-13.2324C9.76562-1.9043 23.1445 5.76172 43.2617 5.76172ZM43.2617-42.1387C63.3789-42.1387 76.7578-48.9746 76.7578-59.2285C76.7578-69.4336 63.3789-76.2695 43.2617-76.2695C23.1445-76.2695 9.76562-69.4336 9.76562-59.2285C9.76562-48.9746 23.1445-42.1387 43.2617-42.1387ZM43.2617-48.7305C27.3926-48.7305 16.7969-52.9297 16.7969-59.2285C16.7969-65.7715 27.3926-70.166 43.2617-70.166C59.1309-70.166 69.7266-65.7715 69.7266-59.2285C69.7266-52.9297 59.1309-48.7305 43.2617-48.7305Z"/>
</svg>
