<?xml version="1.0" encoding="UTF-8"?>
<svg xmlns="http://www.w3.org/2000/svg" viewBox="-4.000 -100.0 129.290 128.0" fill="currentColor">
  <path fill="currentColor" d="M85.9863 1.95312C89.5996 5.51758 95.3125 5.61523 98.877 1.85547C102.441-1.85547 102.344-7.32422 98.8281-10.8887L35.3516-74.3164C31.7871-77.8809 26.0254-77.8809 22.4609-74.3164C18.9453-70.8008 18.9453-64.9902 22.4609-61.4746ZM60.6445-2.19727C92.041-2.19727 113.477-27.3438 113.477-35.2051C113.477-43.1152 92.041-68.2129 60.6445-68.2129C29.7363-68.2129 7.8125-43.1152 7.8125-35.2051C7.8125-27.3438 29.7363-2.19727 60.6445-2.19727ZM60.6445-9.0332C35.9863-9.0332 15.3809-29.9316 15.3809-35.2051C15.3809-39.4531 35.9863-61.377 60.6445-61.377C85.2539-61.377 105.859-39.4531 105.859-35.2051C105.859-29.9316 85.2539-9.0332 60.6445-9.0332ZM60.6445-13.8184C72.5098-13.8184 82.1289-23.4375 82.1289-35.3027C82.1289-47.168 72.5098-56.7871 60.6445-56.7871C48.7793-56.7871 39.1602-47.168 39.1602-35.3027C39.1602-23.4375 48.7793-13.8184 60.6445-13.8184ZM60.6445-27.9785C56.6406-27.9785 53.3691-31.25 53.3691-35.2539C53.3691-39.2578 56.6406-42.5293 60.6445-42.5293C64.6973-42.5293 67.9199-39.2578 67.9199-35.2539C67.9199-31.25 64.6973-27.9785 60.6445-27.9785ZM90.0391-2.09961C91.3574-0.78125 93.4082-0.683594 94.7754-2.09961C96.1914-3.56445 96.0938-5.51758 94.7754-6.83594L31.2988-70.2637C29.9805-71.582 27.832-71.582 26.5137-70.2637C25.2441-68.9941 25.2441-66.7969 26.5137-65.5273Z"/>
</svg>
