<?xml version="1.0" encoding="UTF-8"?>
<svg xmlns="http://www.w3.org/2000/svg" viewBox="-4.000 -100.0 118.110 128.0" fill="currentColor">
  <path fill="currentColor" d="M18.2129 0.390625L91.8945 0.390625C97.0215 0.390625 100.342-2.92969 100.342-7.91016L100.342-62.5C100.342-67.4805 97.0215-70.8008 91.8945-70.8008L18.2129-70.8008C13.1348-70.8008 9.76562-67.4805 9.76562-62.5L9.76562-7.91016C9.76562-2.92969 13.1348 0.390625 18.2129 0.390625ZM18.2617-6.64062C17.0898-6.64062 16.3574-7.4707 16.3574-8.49609L16.3574-12.3047C16.3574-13.4277 17.0898-14.1602 18.2129-14.1602L22.5098-14.1602C23.584-14.1602 24.3164-13.4277 24.3164-12.3047L24.3164-8.49609C24.3164-7.42188 23.584-6.64062 22.5098-6.64062ZM18.2129-19.1895C17.0898-19.1895 16.3574-20.0195 16.3574-20.9961L16.3574-24.8047C16.3574-25.9277 17.0898-26.6602 18.2129-26.6602L22.5098-26.6602C23.584-26.6602 24.3164-25.9277 24.3164-24.8047L24.3164-20.9961C24.3164-20.0195 23.584-19.1895 22.5098-19.1895ZM18.2129-31.4941C17.0898-31.4941 16.3574-32.2754 16.3574-33.252L16.3574-37.0605C16.3574-38.1836 17.0898-38.916 18.2129-38.916L22.5098-38.916C23.584-38.916 24.3164-38.1836 24.3164-37.0605L24.3164-33.252C24.3164-32.2754 23.584-31.4941 22.5098-31.4941ZM18.2129-43.6523C17.0898-43.6523 16.3574-44.4824 16.3574-45.4102L16.3574-49.2676C16.3574-50.3418 17.0898-51.123 18.2129-51.123L22.5098-51.123C23.584-51.123 24.3164-50.3418 24.3164-49.2676L24.3164-45.4102C24.3164-44.4824 23.584-43.6523 22.5098-43.6523ZM18.2129-56.25C17.0898-56.25 16.3574-57.0312 16.3574-58.0078L16.3574-61.8652C16.3574-62.9395 17.0898-63.7207 18.2617-63.7207L22.5098-63.7207C23.584-63.7207 24.3164-62.9395 24.3164-61.8652L24.3164-58.0078C24.3164-57.0312 23.584-56.25 22.5098-56.25ZM32.2266-6.64062C31.1035-6.64062 30.4199-7.32422 30.4199-8.44727L30.4199-29.7852C30.4199-30.9082 31.1035-31.5918 32.2266-31.5918L77.8809-31.5918C79.0039-31.5918 79.6875-30.9082 79.6875-29.7852L79.6875-8.44727C79.6875-7.32422 79.0039-6.64062 77.8809-6.64062ZM32.2266-38.6719C31.1035-38.6719 30.4199-39.3555 30.4199-40.4785L30.4199-61.9629C30.4199-63.0859 31.1035-63.7207 32.2266-63.7207L77.8809-63.7207C79.0039-63.7207 79.6875-63.0859 79.6875-61.9629L79.6875-40.4785C79.6875-39.3555 79.0039-38.6719 77.8809-38.6719ZM87.5977-6.64062C86.5234-6.64062 85.791-7.42188 85.791-8.49609L85.791-12.3047C85.791-13.4277 86.5234-14.1602 87.5977-14.1602L91.9434-14.1602C93.0664-14.1602 93.7988-13.4277 93.7988-12.3047L93.7988-8.49609C93.7988-7.4707 93.0176-6.64062 91.8945-6.64062ZM87.5977-19.1895C86.5234-19.1895 85.791-20.0195 85.791-20.9961L85.791-24.8047C85.791-25.9277 86.5234-26.6602 87.5977-26.6602L91.9434-26.6602C93.0664-26.6602 93.7988-25.9277 93.7988-24.8047L93.7988-20.9961C93.7988-20.0195 93.0664-19.1895 91.9434-19.1895ZM87.5977-31.4941C86.5234-31.4941 85.791-32.2754 85.791-33.252L85.791-37.0605C85.791-38.1836 86.5234-38.916 87.5977-38.916L91.9434-38.916C93.0664-38.916 93.7988-38.1836 93.7988-37.0605L93.7988-33.252C93.7988-32.2754 93.0664-31.4941 91.9434-31.4941ZM87.5977-43.6523C86.5234-43.6523 85.791-44.4824 85.791-45.4102L85.791-49.2676C85.791-50.3418 86.5234-51.123 87.5977-51.123L91.9434-51.123C93.0664-51.123 93.7988-50.3418 93.7988-49.2676L93.7988-45.4102C93.7988-44.4824 93.0664-43.6523 91.9434-43.6523ZM87.5977-56.25C86.5234-56.25 85.791-57.0312 85.791-58.0078L85.791-61.8652C85.791-62.9395 86.5234-63.7207 87.5977-63.7207L91.8945-63.7207C93.0176-63.7207 93.7988-62.9395 93.7988-61.8652L93.7988-58.0078C93.7988-57.0312 93.0664-56.25 91.9434-56.25Z"/>
</svg>
