<?xml version="1.0" encoding="UTF-8"?>
<svg xmlns="http://www.w3.org/2000/svg" viewBox="-4.000 -100.0 115.080 128.0" fill="currentColor">
  <path fill="currentColor" d="M22.2168-0.0976562L86.2793-0.0976562C93.2129-0.0976562 97.3145-4.19922 97.3145-12.4023L97.3145-51.6602C97.3145-59.8633 93.1641-63.916 84.8633-63.916L45.9961-63.916C43.6035-63.916 42.041-64.5996 40.1367-66.1133L37.7441-68.0664C35.2051-70.166 33.1055-70.8984 29.3945-70.8984L20.752-70.8984C13.8672-70.8984 9.76562-66.8945 9.76562-58.7402L9.76562-12.4023C9.76562-4.19922 13.916-0.0976562 22.2168-0.0976562ZM17.3828-49.1211L17.3828-51.6602C17.3828-53.9062 19.043-55.2734 21.7285-55.2734L85.2051-55.2734C87.8418-55.2734 89.502-53.9062 89.502-51.6602L89.502-49.1211Z"/>
</svg>
