<?xml version="1.0" encoding="UTF-8"?>
<svg xmlns="http://www.w3.org/2000/svg" viewBox="-4.000 -100.0 87.980 128.0" fill="currentColor">
  <path fill="currentColor" d="M9.76562-11.3281C9.76562-7.4707 11.9629-5.61523 14.6484-5.61523C15.8203-5.61523 17.0898-5.95703 18.3105-6.64062L58.4961-29.8828C61.7188-31.7871 62.9395-33.1543 62.9395-35.2539C62.9395-37.3535 61.7188-38.7207 58.4961-40.625L18.3105-63.8672C17.0898-64.5508 15.8203-64.8926 14.6484-64.8926C11.9629-64.8926 9.76562-63.0371 9.76562-59.1797ZM16.7969-15.0391L16.7969-55.4688C16.7969-55.8594 17.041-56.1523 17.4316-56.1523C17.5781-56.1523 17.6758-56.1035 17.7734-56.0547L52.4902-35.791C52.7344-35.6445 52.832-35.4492 52.832-35.2539C52.832-35.0586 52.7344-34.8633 52.4902-34.7168L17.7734-14.4531C17.6758-14.4043 17.5781-14.3555 17.4316-14.3555C17.041-14.3555 16.7969-14.6484 16.7969-15.0391ZM66.5039-5.61523C68.6035-5.61523 70.2148-7.22656 70.2148-9.27734L70.2148-61.2305C70.2148-63.2812 68.6035-64.8926 66.5039-64.8926C64.3555-64.8926 62.7441-63.2812 62.7441-61.2305L62.7441-9.27734C62.7441-7.22656 64.3555-5.61523 66.5039-5.61523Z"/>
</svg>
