<?xml version="1.0" encoding="UTF-8"?>
<svg xmlns="http://www.w3.org/2000/svg" viewBox="-4.000 -100.0 108.000 128.0" fill="currentColor">
  <path fill="currentColor" d="M50 1.9043C50.8789 1.9043 51.8066 1.85547 52.6855 1.80664L54.834 5.95703C55.3711 6.98242 56.3965 7.42188 57.4707 7.27539C58.6426 7.08008 59.375 6.25 59.5215 5.12695L60.2051 0.537109C61.9629 0 63.5742-0.634766 65.2344-1.31836L68.6523 1.80664C69.4336 2.58789 70.6055 2.68555 71.582 2.14844C72.6074 1.5625 73.0469 0.537109 72.8027-0.585938L71.7773-5.12695C73.2422-6.20117 74.6094-7.32422 75.8789-8.54492L80.1758-6.78711C81.25-6.34766 82.3242-6.64062 83.1055-7.51953C83.8379-8.39844 83.8867-9.52148 83.3008-10.4492L80.7617-14.4043C81.7871-15.918 82.666-17.4316 83.4473-19.043L88.0859-18.8477C89.2578-18.7988 90.1855-19.3848 90.5762-20.5078C91.0156-21.582 90.6738-22.6562 89.7461-23.3398L86.0352-26.1719C86.4746-27.8809 86.7676-29.6387 86.9629-31.4453L91.4062-32.8613C92.5293-33.2031 93.1641-34.082 93.1641-35.2539C93.1641-36.4258 92.5293-37.3047 91.4062-37.6465L86.9629-39.0625C86.7676-40.8691 86.4746-42.627 86.0352-44.3359L89.7461-47.168C90.6738-47.8516 90.918-48.9258 90.625-50C90.1855-51.1719 89.209-51.709 88.0859-51.6602L83.4473-51.5137C82.666-53.125 81.7871-54.6387 80.7617-56.1523L83.3008-60.0586C83.8867-60.9863 83.7891-62.1094 83.1543-62.9883C82.3242-63.916 81.25-64.1602 80.1758-63.7207L75.8789-61.9629C74.6094-63.2324 73.1934-64.3555 71.7773-65.3809L72.8027-69.9219C73.0469-71.0449 72.6074-72.0703 71.6309-72.6562C70.6055-73.2422 69.4336-73.0957 68.6523-72.3145L65.1855-69.1895C63.5742-69.9219 61.9141-70.5078 60.1562-71.0449L59.5215-75.6348C59.375-76.7578 58.6426-77.5391 57.5195-77.7832C56.3477-77.9785 55.3711-77.4902 54.834-76.4648L52.6855-72.3145C51.8066-72.3633 50.8789-72.4121 50-72.4121C49.1211-72.4121 48.2422-72.3633 47.3145-72.3145L45.166-76.4648C44.6289-77.4902 43.6523-77.9297 42.5293-77.7832C41.3574-77.5879 40.625-76.7578 40.4785-75.6348L39.7949-71.0449C38.0859-70.5078 36.4258-69.873 34.8145-69.1895L31.3965-72.3145C30.5664-73.0957 29.4434-73.1934 28.418-72.6562C27.3926-72.0703 27.002-71.0449 27.2461-69.9219L28.2227-65.332C26.7578-64.3066 25.3906-63.1836 24.1211-61.9141L19.8242-63.7207C18.7988-64.1602 17.6758-63.8672 16.9434-62.9883C16.1621-62.1094 16.1133-60.9863 16.748-60.0586L19.2383-56.1035C18.2617-54.5898 17.334-53.0762 16.5527-51.4648L11.9629-51.6602C10.791-51.709 9.86328-51.123 9.47266-50C9.0332-48.9258 9.375-47.8516 10.2539-47.168L13.9648-44.3359C13.5254-42.627 13.2324-40.8691 13.0371-39.0625L8.59375-37.6465C7.4707-37.3047 6.83594-36.4258 6.83594-35.2539C6.83594-34.082 7.4707-33.2031 8.59375-32.8613L13.0371-31.4453C13.2324-29.6387 13.5254-27.8809 13.9648-26.1719L10.2539-23.3398C9.375-22.6562 9.08203-21.582 9.42383-20.5078C9.86328-19.3359 10.791-18.7988 11.9141-18.8477L16.5527-18.9941C17.334-17.3828 18.2617-15.8691 19.2383-14.3555L16.748-10.4492C16.1133-9.52148 16.2109-8.34961 16.8945-7.51953C17.6758-6.5918 18.7988-6.34766 19.8242-6.78711L24.1211-8.59375C25.3906-7.27539 26.8066-6.15234 28.2227-5.12695L27.2461-0.585938C27.002 0.537109 27.3926 1.5625 28.3691 2.14844C29.4434 2.73438 30.5664 2.58789 31.3965 1.80664L34.8633-1.31836C36.4258-0.585938 38.1348 0 39.8438 0.537109L40.4785 5.12695C40.625 6.25 41.4062 7.03125 42.4805 7.27539C43.6523 7.4707 44.6289 6.98242 45.166 5.95703L47.3145 1.80664C48.2422 1.85547 49.1211 1.9043 50 1.9043ZM50-5.37109C33.4961-5.37109 20.1172-18.75 20.1172-35.2539C20.1172-51.7578 33.4961-65.1367 50-65.1367C66.5039-65.1367 79.8828-51.7578 79.8828-35.2539C79.8828-18.75 66.5039-5.37109 50-5.37109ZM42.8223-41.2109L47.9492-44.4336L35.3027-66.1133L29.9316-63.1348ZM58.8867-32.2754L84.082-32.2754L84.082-38.2324L58.8867-38.2324ZM47.9004-25.8789L42.8711-29.248L29.4922-7.42188L34.7656-4.3457ZM50-24.707C55.8105-24.707 60.5469-29.4434 60.5469-35.2539C60.5469-41.0645 55.8105-45.8008 50-45.8008C44.1895-45.8008 39.502-41.0645 39.502-35.2539C39.502-29.4434 44.1895-24.707 50-24.707ZM50-31.25C47.8027-31.25 45.9961-33.0566 45.9961-35.2539C45.9961-37.4512 47.8027-39.2578 50-39.2578C52.1973-39.2578 54.0039-37.4512 54.0039-35.2539C54.0039-33.0566 52.1973-31.25 50-31.25Z"/>
</svg>
