<?xml version="1.0" encoding="UTF-8"?>
<svg xmlns="http://www.w3.org/2000/svg" viewBox="-4.000 -100.0 100.530 128.0" fill="currentColor">
  <path fill="currentColor" d="M46.2402 1.66016C57.1777 1.66016 65.8203-14.4043 65.8203-35.1562C65.8203-56.0547 57.2266-72.168 46.2402-72.168C35.2539-72.168 26.709-56.0547 26.709-35.1562C26.709-14.4043 35.3027 1.66016 46.2402 1.66016ZM46.2402-3.66211C39.0137-3.66211 32.4707-18.5059 32.4707-35.1562C32.4707-52.002 39.0137-66.8457 46.2402-66.8457C53.5156-66.8457 60.0586-52.002 60.0586-35.1562C60.0586-18.5059 53.5156-3.66211 46.2402-3.66211ZM46.2402 2.92969C47.8027 2.92969 49.0723 1.66016 49.0723 0.0976562L49.0723-70.2148C49.0723-71.7773 47.8027-73.0469 46.2402-73.0469C44.7266-73.0469 43.4082-71.7773 43.4082-70.2148L43.4082 0.0976562C43.4082 1.66016 44.7266 2.92969 46.2402 2.92969ZM22.7539-9.52148C27.7344-13.5742 35.9375-15.7715 46.2402-15.7715C56.5918-15.7715 64.7461-13.5742 69.7754-9.52148C70.9961-8.54492 72.6562-8.39844 73.7793-9.47266C74.9023-10.5469 75-12.3047 73.8281-13.4277C68.75-18.1641 58.1543-21.4355 46.2402-21.4355C34.375-21.4355 23.7793-18.1641 18.7012-13.4277C17.5293-12.3047 17.627-10.5469 18.75-9.47266C19.873-8.39844 21.4844-8.54492 22.7539-9.52148ZM12.0605-32.4219L81.3965-32.4219C82.959-32.4219 84.2285-33.6914 84.2285-35.2539C84.2285-36.8164 82.959-38.0859 81.3965-38.0859L12.0605-38.0859C10.498-38.0859 9.22852-36.8164 9.22852-35.2539C9.22852-33.6914 10.498-32.4219 12.0605-32.4219ZM46.2402-48.877C58.1543-48.877 68.75-52.1484 73.8281-56.8848C75-58.0078 74.9023-59.7656 73.7793-60.8398C72.6562-61.9141 70.9961-61.7676 69.7754-60.791C64.7461-56.7383 56.5918-54.541 46.2402-54.541C35.9375-54.541 27.7344-56.7383 22.7539-60.791C21.4844-61.7676 19.873-61.9141 18.75-60.8398C17.627-59.7656 17.5293-58.0078 18.7012-56.8848C23.7793-52.1484 34.375-48.877 46.2402-48.877ZM46.2402 4.15039C68.0176 4.15039 85.6934-13.4766 85.6934-35.2539C85.6934-57.0312 68.0176-74.6582 46.2402-74.6582C24.5117-74.6582 6.83594-57.0312 6.83594-35.2539C6.83594-13.4766 24.5117 4.15039 46.2402 4.15039ZM46.2402-1.70898C27.7344-1.70898 12.7441-16.748 12.7441-35.2539C12.7441-53.7598 27.7344-68.7988 46.2402-68.7988C64.7461-68.7988 79.7852-53.7598 79.7852-35.2539C79.7852-16.748 64.7461-1.70898 46.2402-1.70898Z"/>
</svg>
