<?xml version="1.0" encoding="UTF-8"?>
<svg xmlns="http://www.w3.org/2000/svg" viewBox="-4.000 -100.0 102.330 128.0" fill="currentColor">
  <path fill="currentColor" d="M6.83594-20.8984C6.83594-8.20312 15.1367 2.58789 25.2441 2.58789L37.793 2.58789C42.8711 5.32227 48.9746 6.88477 55.8105 6.88477L61.084 6.88477C65.7715 6.88477 69.873 6.5918 72.6074 5.9082C78.0762 4.63867 81.4941 0.78125 81.4941-4.05273C81.4941-4.93164 81.3965-5.76172 81.1523-6.54297C83.6914-8.59375 85.1074-11.5234 85.1074-14.6973C85.1074-16.1133 84.8633-17.5781 84.375-18.8477C86.084-20.752 87.0117-23.3887 87.0117-26.0742C87.0117-27.7832 86.6211-29.6387 85.9375-31.1035C86.9141-32.666 87.5-34.8145 87.5-37.0605C87.5-42.9199 82.9102-47.5586 77.002-47.5586L62.5977-47.5586C62.1094-47.5586 61.7676-47.8027 61.7676-48.291C61.7676-52.1973 68.1641-61.8164 68.1641-69.5801C68.1641-75.0977 64.3555-79.0527 59.0332-79.0527C55.127-79.0527 52.5391-77.0508 50-72.168C45.459-63.5254 39.5508-54.8828 30.957-44.5801L23.8281-44.5801C14.4043-44.5801 6.83594-33.8867 6.83594-20.8984ZM29.6387-21.1914C29.6387-29.2969 31.4453-34.4727 36.5234-41.2598C42.1875-48.8281 50.0977-57.9102 55.7129-69.2383C57.1289-72.0215 58.0078-72.6074 59.3262-72.6074C60.6934-72.6074 61.7188-71.5332 61.7188-69.5801C61.7188-63.5254 55.3223-54.2969 55.3223-48.291C55.3223-43.8477 58.9844-41.1621 63.5742-41.1621L77.002-41.1621C79.3457-41.1621 81.0547-39.4043 81.0547-37.0605C81.0547-35.2539 80.4688-34.1797 78.9062-32.5684C78.3203-31.9824 78.2715-31.2988 78.7109-30.6152C80.0293-28.6133 80.5664-27.5391 80.5664-26.0742C80.5664-24.3652 79.7363-22.9492 77.9785-21.5332C77.0508-20.8008 76.709-19.8242 77.1973-18.7012C78.2227-16.748 78.6621-16.0156 78.6621-14.6973C78.6621-12.7441 77.3926-11.2793 74.5605-9.76562C73.7305-9.27734 73.584-8.59375 73.9258-7.86133C74.9023-5.27344 75-4.98047 75-4.05273C75-2.34375 73.7793-1.02539 71.0938-0.341797C68.8965 0.244141 65.332 0.488281 61.084 0.488281L56.3477 0.488281C40.2832 0.488281 29.6387-8.59375 29.6387-21.1914ZM13.2812-20.8984C13.2812-30.3223 18.3105-38.1836 23.8281-38.1836C24.8047-38.1836 25.8301-38.1836 26.8555-38.1836C24.3164-33.1055 23.1934-27.6855 23.1934-21.3379C23.1934-14.5508 25.4883-8.54492 29.6387-3.85742C28.1738-3.85742 26.709-3.85742 25.2441-3.85742C18.8965-3.85742 13.2812-11.7188 13.2812-20.8984Z"/>
</svg>
