<?xml version="1.0" encoding="UTF-8"?>
<svg xmlns="http://www.w3.org/2000/svg" viewBox="-4.000 -100.0 102.330 128.0" fill="currentColor">
  <path fill="currentColor" d="M87.5-50.9766C87.5-63.7207 79.1992-74.5117 69.0918-74.5117L56.543-74.5117C51.4648-77.1973 45.3613-78.8086 38.5254-78.8086L33.252-78.8086C28.5645-78.8086 24.4629-78.5156 21.7285-77.832C16.2598-76.5137 12.8418-72.6562 12.8418-67.8711C12.8418-66.9922 12.9395-66.1133 13.1836-65.332C10.6445-63.2812 9.22852-60.4004 9.22852-57.2266C9.22852-55.7617 9.47266-54.2969 9.96094-53.0273C8.25195-51.123 7.32422-48.5352 7.32422-45.8008C7.32422-44.0918 7.71484-42.2363 8.39844-40.8203C7.42188-39.209 6.83594-37.1094 6.83594-34.8633C6.83594-28.9551 11.4258-24.3164 17.334-24.3164L31.7383-24.3164C32.2266-24.3164 32.5684-24.1211 32.5684-23.584C32.5684-19.6777 26.1719-10.1074 26.1719-2.29492C26.1719 3.17383 29.9805 7.12891 35.3027 7.12891C39.209 7.12891 41.7969 5.12695 44.3359 0.292969C48.877-8.39844 54.7852-17.041 63.3789-27.2949L70.5078-27.2949C79.9316-27.2949 87.5-37.9883 87.5-50.9766ZM64.6973-50.6836C64.6973-42.5781 62.8906-37.4512 57.8125-30.6152C52.1484-23.0469 44.2383-13.9648 38.623-2.68555C37.207 0.0976562 36.3281 0.732422 35.0098 0.732422C33.6426 0.732422 32.6172-0.341797 32.6172-2.29492C32.6172-8.39844 39.0137-17.627 39.0137-23.584C39.0137-28.0762 35.3516-30.7617 30.7617-30.7617L17.334-30.7617C14.9902-30.7617 13.2812-32.4707 13.2812-34.8633C13.2812-36.6699 13.8672-37.7441 15.4297-39.3555C16.0156-39.8926 16.0645-40.5762 15.625-41.3086C14.3066-43.3105 13.7695-44.3359 13.7695-45.8008C13.7695-47.5098 14.5996-48.9258 16.3574-50.3906C17.2852-51.0742 17.627-52.0508 17.1387-53.1738C16.1133-55.127 15.6738-55.8594 15.6738-57.2266C15.6738-59.1797 16.9434-60.6445 19.7754-62.1094C20.6055-62.5977 20.752-63.2812 20.4102-64.0137C19.4336-66.6016 19.3359-66.8945 19.3359-67.8711C19.3359-69.5312 20.5566-70.8984 23.2422-71.582C25.4395-72.168 29.0039-72.4121 33.252-72.4121L37.9883-72.4121C54.0527-72.3633 64.6973-63.2812 64.6973-50.6836ZM81.0547-50.9766C81.0547-41.5527 76.0254-33.7402 70.5078-33.7402C69.5312-33.7402 68.5059-33.7402 67.4805-33.7402C70.0195-38.7695 71.1426-44.2383 71.1426-50.5859C71.1426-57.373 68.8477-63.3301 64.6973-68.0176C66.1621-68.0176 67.627-68.0176 69.0918-68.0176C75.4395-68.0176 81.0547-60.1562 81.0547-50.9766Z"/>
</svg>
