<?xml version="1.0" encoding="UTF-8"?>
<svg xmlns="http://www.w3.org/2000/svg" viewBox="-4.000 -100.0 79.830 128.0" fill="currentColor">
  <path fill="currentColor" d="M32.8613 11.4746C34.668 13.0371 37.207 13.2812 38.9648 11.5234L50.7812-0.292969C52.4902-2.00195 52.3926-4.6875 50.7324-6.34766L45.2148-11.8652L53.4668-20.1172C55.127-21.7773 55.0781-24.4629 53.418-26.1719L45.9961-33.6426C56.25-38.8184 62.0605-47.4609 62.0605-57.6172C62.0605-72.0703 50.3418-83.6914 35.8887-83.6914C21.3867-83.6914 9.76562-72.1191 9.76562-57.6172C9.76562-47.3145 15.625-38.0371 24.9512-33.7891L24.9512 2.09961C24.9512 3.51562 25.3906 5.12695 26.6113 6.15234ZM35.8887 4.63867L31.9824 0.732422L31.9824-38.8184C22.998-40.7715 16.748-48.4863 16.748-57.6172C16.748-68.1641 25.293-76.6602 35.8887-76.6602C46.4844-76.6602 54.9805-68.1641 54.9805-57.6172C54.9805-48.584 48.6816-40.7715 39.6484-38.7695L39.6484-29.9316L46.4844-23.0957L38.8184-15.5273L38.8184-8.30078L43.7988-3.36914ZM35.8887-58.5449C39.4043-58.5449 42.2363-61.377 42.2363-64.8926C42.2363-68.3594 39.4043-71.1914 35.8887-71.1914C32.373-71.1914 29.5898-68.3594 29.5898-64.8926C29.5898-61.377 32.4219-58.5449 35.8887-58.5449Z"/>
</svg>
