<?xml version="1.0" encoding="UTF-8"?>
<svg xmlns="http://www.w3.org/2000/svg" viewBox="-4.000 -100.0 81.870 128.0" fill="currentColor">
  <path fill="currentColor" d="M19.6289 1.51367L54.248 1.51367C60.1562 1.51367 63.1348-1.51367 63.1348-7.91016L63.1348-33.6426C63.1348-39.9902 60.1562-43.0176 54.248-43.0176L19.6289-43.0176C13.7207-43.0176 10.7422-39.9902 10.7422-33.6426L10.7422-7.91016C10.7422-1.51367 13.7207 1.51367 19.6289 1.51367ZM19.9219-5.0293C18.5547-5.0293 17.7734-5.81055 17.7734-7.42188L17.7734-34.1309C17.7734-35.7422 18.5547-36.4746 19.9219-36.4746L53.9551-36.4746C55.3711-36.4746 56.1035-35.7422 56.1035-34.1309L56.1035-7.42188C56.1035-5.81055 55.3711-5.0293 53.9551-5.0293ZM17.3828-39.6484L24.2676-39.6484L24.2676-53.3203C24.2676-62.793 30.3711-67.4316 36.9141-67.4316C43.5059-67.4316 49.6582-62.793 49.6582-53.3203L49.6582-39.6484L56.543-39.6484L56.543-52.2949C56.543-67.2852 46.7285-73.9746 36.9141-73.9746C27.1484-73.9746 17.3828-67.2852 17.3828-52.2949Z"/>
</svg>
