<?xml version="1.0" encoding="UTF-8"?>
<svg xmlns="http://www.w3.org/2000/svg" viewBox="-4.000 -100.0 105.710 128.0" fill="currentColor">
  <path fill="currentColor" d="M18.6523 1.51367L53.2715 1.51367C59.1797 1.51367 62.1582-1.51367 62.1582-7.91016L62.1582-33.6426C62.1582-39.9902 59.1797-43.0176 53.2715-43.0176L18.6523-43.0176C12.7441-43.0176 9.76562-39.9902 9.76562-33.6426L9.76562-7.91016C9.76562-1.51367 12.7441 1.51367 18.6523 1.51367ZM18.9453-5.0293C17.5781-5.0293 16.7969-5.81055 16.7969-7.42188L16.7969-34.1309C16.7969-35.7422 17.5781-36.4746 18.9453-36.4746L52.9785-36.4746C54.3945-36.4746 55.127-35.7422 55.127-34.1309L55.127-7.42188C55.127-5.81055 54.3945-5.0293 52.9785-5.0293ZM48.7793-39.5996L55.6641-39.5996L55.6641-53.2715C55.6641-62.7441 61.7676-67.3828 68.3594-67.3828C74.9023-67.3828 81.0547-62.7441 81.0547-53.2715L81.0547-44.7266C81.0547-42.0898 82.5684-40.8203 84.5215-40.8203C86.4258-40.8203 87.9395-41.9434 87.9395-44.7266L87.9395-52.2949C87.9395-67.2363 78.125-73.9258 68.3594-73.9258C58.5449-73.9258 48.7793-67.2363 48.7793-52.2949Z"/>
</svg>
