<?xml version="1.0" encoding="UTF-8"?>
<svg xmlns="http://www.w3.org/2000/svg" viewBox="-4.000 -100.0 104.630 128.0" fill="currentColor">
  <path fill="currentColor" d="M54.1504 7.4707C57.1777 7.4707 59.2773 4.83398 60.8398 0.878906L85.6445-63.916C86.4258-65.918 86.8652-67.6758 86.8652-69.1406C86.8652-71.8262 85.1562-73.5352 82.4707-73.5352C81.0059-73.5352 79.248-73.0957 77.2949-72.3145L12.0605-47.3145C8.64258-45.9961 5.85938-43.8477 5.85938-40.8203C5.85938-36.9141 8.88672-35.6934 12.7441-34.5215L39.8926-26.5137L47.8027 0.195312C48.9746 4.29688 50.2441 7.4707 54.1504 7.4707ZM41.8457-33.1543L16.1621-41.1133C15.8203-41.2109 15.7227-41.3574 15.7227-41.5039C15.7227-41.6992 15.7715-41.8457 16.1621-41.9922L64.7461-60.3516C68.2129-61.6699 71.5332-63.3789 74.9023-64.9414C71.9727-62.5488 68.5059-59.8145 66.1133-57.4219ZM54.8828-2.29492C54.6875-2.29492 54.5898-2.49023 54.4434-2.83203L46.4844-28.5156L70.752-52.7344C73.1934-55.1758 75.9766-58.6914 78.3203-61.6699C76.7578-58.3008 75-54.9316 73.6816-51.3672L55.3223-2.83203C55.1758-2.44141 55.0781-2.29492 54.8828-2.29492Z"/>
</svg>
