<?xml version="1.0" encoding="UTF-8"?>
<svg xmlns="http://www.w3.org/2000/svg" viewBox="-4.000 -100.0 75.830 128.0" fill="currentColor">
  <path fill="currentColor" d="M15.2344-3.17383L24.0723-3.17383C27.5879-3.17383 29.4922-5.07812 29.4922-8.64258L29.4922-61.8652C29.4922-65.625 27.5879-67.334 24.0723-67.334L15.2344-67.334C11.6699-67.334 9.76562-65.4297 9.76562-61.8652L9.76562-8.64258C9.76562-5.07812 11.6699-3.17383 15.2344-3.17383ZM43.7988-3.17383L52.6367-3.17383C56.1523-3.17383 58.0566-5.07812 58.0566-8.64258L58.0566-61.8652C58.0566-65.625 56.1523-67.334 52.6367-67.334L43.7988-67.334C40.2344-67.334 38.3301-65.4297 38.3301-61.8652L38.3301-8.64258C38.3301-5.07812 40.2344-3.17383 43.7988-3.17383Z"/>
</svg>
