<?xml version="1.0" encoding="UTF-8"?>
<svg xmlns="http://www.w3.org/2000/svg" viewBox="-4.000 -100.0 101.750 128.0" fill="currentColor">
  <path fill="currentColor" d="M65.332 2.83203C72.3145 2.83203 76.709 1.02539 80.5664-3.4668C80.9082-3.80859 81.25-4.19922 81.5918-4.58984C83.8867-7.17773 84.9609-9.7168 84.9609-12.1582C84.9609-15.0391 83.2031-17.9199 79.541-20.459L69.8242-27.0996C66.748-29.248 64.209-29.2969 60.3516-27.4414L54.4434-24.5605C53.418-24.0234 52.4414-24.0234 51.4648-24.707C49.8047-25.7812 45.3125-29.4434 42.7246-32.0312C40.1367-34.6191 37.2559-38.0859 35.9375-40.3809C35.498-41.1621 35.5469-41.8457 36.2305-42.8711L39.5996-48.1934C41.1133-50.5371 41.6992-54.0039 39.5996-56.9824L31.9824-67.8711C29.4434-71.5332 26.709-73.2422 23.7793-73.291C21.3379-73.3398 18.7988-72.2168 16.2109-69.9219C15.8203-69.6289 15.4785-69.2871 15.0879-68.9453C10.6445-65.0391 8.78906-60.6934 8.78906-53.7109C8.78906-42.627 15.4297-29.0527 28.0762-16.4062C40.625-3.85742 54.248 2.83203 65.332 2.83203ZM65.3809-3.75977C55.6152-3.56445 42.9199-11.1328 33.0566-20.9473C23.1934-30.7617 15.1855-43.9941 15.4297-53.7598C15.5273-57.9102 16.9922-61.4258 19.9219-63.916C20.2148-64.1602 20.459-64.3555 20.7031-64.5996C21.6797-65.3809 22.8027-65.8691 23.8281-65.8691C24.9023-65.8691 25.8301-65.4785 26.5625-64.4043L33.3496-54.1504C33.9844-53.2715 33.9355-52.4902 33.1543-51.2695L29.3945-45.166C27.5391-42.1387 27.8809-39.9902 29.7852-37.5488C32.1777-34.4238 35.6445-30.0781 38.2812-27.5391C40.8691-24.9512 46.0449-20.459 48.7305-18.457C51.1719-16.6504 53.2715-16.2598 57.2266-18.1152L63.623-21.1914C64.9414-21.7773 65.9668-21.582 67.0898-20.8984L76.0254-14.8926C77.0996-14.209 77.4902-13.2812 77.4902-12.207C77.4902-11.1816 77.002-10.0586 76.2207-9.08203C75.9766-8.78906 75.7812-8.54492 75.5859-8.30078C73.0957-5.32227 69.5312-3.85742 65.3809-3.75977Z"/>
</svg>
