<?xml version="1.0" encoding="UTF-8"?>
<svg xmlns="http://www.w3.org/2000/svg" viewBox="-4.000 -100.0 91.350 128.0" fill="currentColor">
  <path fill="currentColor" d="M45.6055-7.27539L45.6055-63.2324C45.6055-65.332 43.8477-67.1875 41.6992-67.1875C39.5508-67.1875 37.7441-65.332 37.7441-63.2324L37.7441-7.27539C37.7441-5.17578 39.5508-3.32031 41.6992-3.32031C43.8477-3.32031 45.6055-5.17578 45.6055-7.27539ZM13.7207-31.2988L69.6777-31.2988C71.7773-31.2988 73.584-33.1055 73.584-35.2539C73.584-37.4023 71.7773-39.209 69.6777-39.209L13.7207-39.209C11.5723-39.209 9.76562-37.4023 9.76562-35.2539C9.76562-33.1055 11.5723-31.2988 13.7207-31.2988Z"/>
</svg>
