<?xml version="1.0" encoding="UTF-8"?>
<svg xmlns="http://www.w3.org/2000/svg" viewBox="0 0 100 100" fill="currentColor">
  <rect x="47" y="10" width="6" height="22" rx="3" fill="currentColor" opacity="1.00"/>
  <rect x="47" y="10" width="6" height="22" rx="3" fill="currentColor" opacity="0.91" transform="rotate(30 50 50)"/>
  <rect x="47" y="10" width="6" height="22" rx="3" fill="currentColor" opacity="0.83" transform="rotate(60 50 50)"/>
  <rect x="47" y="10" width="6" height="22" rx="3" fill="currentColor" opacity="0.75" transform="rotate(90 50 50)"/>
  <rect x="47" y="10" width="6" height="22" rx="3" fill="currentColor" opacity="0.66" transform="rotate(120 50 50)"/>
  <rect x="47" y="10" width="6" height="22" rx="3" fill="currentColor" opacity="0.58" transform="rotate(150 50 50)"/>
  <rect x="47" y="10" width="6" height="22" rx="3" fill="currentColor" opacity="0.50" transform="rotate(180 50 50)"/>
  <rect x="47" y="10" width="6" height="22" rx="3" fill="currentColor" opacity="0.41" transform="rotate(210 50 50)"/>
  <rect x="47" y="10" width="6" height="22" rx="3" fill="currentColor" opacity="0.33" transform="rotate(240 50 50)"/>
  <rect x="47" y="10" width="6" height="22" rx="3" fill="currentColor" opacity="0.25" transform="rotate(270 50 50)"/>
  <rect x="47" y="10" width="6" height="22" rx="3" fill="currentColor" opacity="0.16" transform="rotate(300 50 50)"/>
  <rect x="47" y="10" width="6" height="22" rx="3" fill="currentColor" opacity="0.08" transform="rotate(330 50 50)"/>
</svg>
