<?xml version="1.0" encoding="UTF-8"?>
<svg xmlns="http://www.w3.org/2000/svg" viewBox="0 0 24 24" fill="currentColor">
  <path fill="currentColor" d="M12 2C6.48 2 2 6.48 2 12C2 17.52 6.48 22 12 22C17.52 22 22 17.52 22 12C22 6.48 17.52 2 12 2ZM12 20C7.59 20 4 16.41 4 12C4 7.59 7.59 4 12 4C16.41 4 20 7.59 20 12C20 16.41 16.41 20 12 20ZM12.01 6.5C9.79 6.5 8.26 8.03 8.26 10.25H10.51C10.51 9.15 11.01 8.5 12.01 8.5C12.93 8.5 13.51 9.08 13.51 9.9C13.51 10.61 13.23 11.09 12.38 11.71C11.38 12.42 10.94 13.14 11.01 14.5H13.11C13.11 13.75 13.24 13.47 14.03 12.86C15.01 12.13 15.61 11.29 15.61 10C15.61 8.05 14.16 6.5 12.01 6.5ZM11 15.5H13V17.5H11V15.5Z"/>
</svg>
