<?xml version="1.0" encoding="UTF-8"?>
<svg xmlns="http://www.w3.org/2000/svg" viewBox="-4.000 -100.0 118.790 128.0" fill="currentColor">
  <path fill="currentColor" d="M20.5078-19.1895L31.2012-19.1895C31.4941-19.1895 31.7871-19.0918 31.9824-18.8965L48.9746-3.66211C51.0254-1.85547 52.5879-1.02539 54.5898-1.02539C57.2266-1.02539 59.3262-2.97852 59.3262-5.71289L59.3262-64.4531C59.3262-67.1387 57.2266-69.3848 54.4922-69.3848C52.4902-69.3848 51.2207-68.5059 48.9746-66.4551L31.9824-51.5137C31.7871-51.3184 31.4941-51.2207 31.2012-51.2207L20.5078-51.2207C14.8438-51.2207 12.0605-48.3398 12.0605-42.2852L12.0605-28.0762C12.0605-22.0703 14.8926-19.1895 20.5078-19.1895ZM20.8008-25.5371C19.5312-25.5371 18.8477-26.1719 18.8477-27.4902L18.8477-42.9199C18.8477-44.1895 19.5312-44.873 20.8008-44.873L33.1055-44.873C34.0332-44.873 34.7656-45.0195 35.6445-45.8496L51.5137-60.2051C51.6602-60.3516 51.8555-60.4492 52.0508-60.4492C52.2949-60.4492 52.4902-60.2539 52.4902-59.9609L52.4902-10.498C52.4902-10.1562 52.2949-9.96094 52.0508-9.96094C51.8555-9.96094 51.6602-10.0586 51.5137-10.2539L35.6445-24.5605C34.7656-25.3418 34.0332-25.5371 33.1055-25.5371ZM71.582-18.7988C73.0469-17.8223 75.0977-18.1152 76.2695-19.8242C79.1992-23.7305 80.9082-29.4922 80.9082-35.2539C80.9082-41.0156 79.1992-46.7285 76.2695-50.6836C75.0977-52.3926 73.0469-52.6855 71.582-51.6602C69.8242-50.4395 69.5312-48.291 70.8984-46.4844C72.9492-43.7012 74.1211-39.4531 74.1211-35.2539C74.1211-31.0547 72.9004-26.8555 70.8984-24.0234C69.5801-22.168 69.8242-20.0684 71.582-18.7988ZM86.2305-8.88672C87.8418-7.8125 89.8438-8.1543 91.0156-9.86328C95.8984-16.6504 98.7305-25.8789 98.7305-35.2539C98.7305-44.6289 95.9473-53.9551 91.0156-60.6445C89.8438-62.3535 87.8418-62.6953 86.2305-61.6211C84.6191-60.5469 84.3262-58.4961 85.5957-56.6895C89.6484-50.9277 91.9434-43.1641 91.9434-35.2539C91.9434-27.3438 89.5508-19.6289 85.5957-13.8184C84.375-12.0117 84.6191-9.96094 86.2305-8.88672Z"/>
</svg>
