<?xml version="1.0" encoding="UTF-8"?>
<svg xmlns="http://www.w3.org/2000/svg" viewBox="-4.000 -100.0 109.310 128.0" fill="currentColor">
  <path fill="currentColor" d="M13.4766-68.9453L44.0918-68.9453C46.1426-68.9453 47.8027-70.6543 47.8027-72.6562C47.8027-74.6582 46.1426-76.3184 44.0918-76.3184L13.4766-76.3184C11.2793-76.3184 9.76562-74.6582 9.76562-72.6562C9.76562-70.6543 11.2793-68.9453 13.4766-68.9453ZM28.8574 5.66406C37.9883 5.66406 44.043-0.390625 44.043-9.52148L44.043-72.7051L37.0605-72.7051L37.0605-9.52148C37.0605-4.58984 33.7402-1.26953 28.8574-1.26953C23.877-1.26953 20.5566-4.58984 20.5566-9.52148L20.5566-72.7051L13.5254-72.7051L13.5254-9.52148C13.5254-0.390625 19.6289 5.66406 28.8574 5.66406ZM38.9648-58.7402L18.6523-58.7402L18.6523-9.52148C18.6523-3.51562 22.8027 0.634766 28.8574 0.634766C34.8145 0.634766 38.9648-3.51562 38.9648-9.52148ZM20.5566-46.3379L20.5566-51.3672L28.9062-51.3672C30.2734-51.3672 31.4453-50.2441 31.4453-48.9258C31.4453-47.4609 30.3711-46.3379 28.9551-46.3379ZM20.5566-33.9844L20.5566-39.0137L28.9551-39.0137C30.3223-39.0137 31.4453-37.8418 31.4453-36.5234C31.4453-35.0586 30.3711-33.9844 28.9551-33.9844ZM20.5566-21.6309L20.5566-26.6113L28.9062-26.6113C30.2734-26.6113 31.3965-25.4883 31.3965-24.1699C31.4453-22.7051 30.4199-21.6309 28.9062-21.6309ZM57.1777-68.9453L87.8418-68.9453C89.8438-68.9453 91.5527-70.6543 91.5527-72.6562C91.5527-74.6582 89.8438-76.3184 87.8418-76.3184L57.1777-76.3184C54.9805-76.3184 53.4668-74.6582 53.4668-72.6562C53.4668-70.6543 54.9805-68.9453 57.1777-68.9453ZM72.5586 5.66406C81.6895 5.66406 87.7441-0.390625 87.7441-9.52148L87.7441-72.7051L80.7617-72.7051L80.7617-9.52148C80.7617-4.58984 77.4902-1.26953 72.5586-1.26953C67.5781-1.26953 64.3066-4.58984 64.3066-9.52148L64.3066-72.7051L57.2266-72.7051L57.2266-9.52148C57.2266-0.390625 63.3789 5.66406 72.5586 5.66406ZM82.666-14.3066L62.4023-14.3066L62.4023-9.52148C62.4023-3.51562 66.5527 0.634766 72.5586 0.634766C78.5156 0.634766 82.666-3.51562 82.666-9.52148ZM62.4023-46.3379L72.6562-46.3379C74.0723-46.3379 75.1953-47.4609 75.1953-48.9258C75.1953-50.2441 74.0234-51.3672 72.6562-51.3672L62.4023-51.3672ZM62.4023-33.9844L72.6562-33.9844C74.0723-33.9844 75.1953-35.0586 75.1953-36.5234C75.1953-37.8418 74.0723-39.0137 72.6562-39.0137L62.4023-39.0137ZM62.4023-21.6309L72.6562-21.6309C74.1211-21.6309 75.1953-22.7051 75.1465-24.1699C75.1465-25.4883 74.0234-26.6113 72.6562-26.6113L62.4023-26.6113Z"/>
</svg>
