<svg viewBox="0 0 24 24" fill="currentColor" xmlns="http://www.w3.org/2000/svg"><rect x="11.25" y="2.5" width="1.5" height="4.5" rx="0.75" opacity="1"/><rect x="11.25" y="2.5" width="1.5" height="4.5" rx="0.75" transform="rotate(30 12 12)" opacity="0.917"/><rect x="11.25" y="2.5" width="1.5" height="4.5" rx="0.75" transform="rotate(60 12 12)" opacity="0.833"/><rect x="11.25" y="2.5" width="1.5" height="4.5" rx="0.75" transform="rotate(90 12 12)" opacity="0.75"/><rect x="11.25" y="2.5" width="1.5" height="4.5" rx="0.75" transform="rotate(120 12 12)" opacity="0.667"/><rect x="11.25" y="2.5" width="1.5" height="4.5" rx="0.75" transform="rotate(150 12 12)" opacity="0.583"/><rect x="11.25" y="2.5" width="1.5" height="4.5" rx="0.75" transform="rotate(180 12 12)" opacity="0.5"/><rect x="11.25" y="2.5" width="1.5" height="4.5" rx="0.75" transform="rotate(210 12 12)" opacity="0.417"/><rect x="11.25" y="2.5" width="1.5" height="4.5" rx="0.75" transform="rotate(240 12 12)" opacity="0.333"/><rect x="11.25" y="2.5" width="1.5" height="4.5" rx="0.75" transform="rotate(270 12 12)" opacity="0.25"/><rect x="11.25" y="2.5" width="1.5" height="4.5" rx="0.75" transform="rotate(300 12 12)" opacity="0.167"/><rect x="11.25" y="2.5" width="1.5" height="4.5" rx="0.75" transform="rotate(330 12 12)" opacity="0.083"/></svg>
