<svg viewBox="0 0 24 24" fill="none" stroke-linecap="round" stroke-linejoin="round" xmlns="http://www.w3.org/2000/svg"><path d="M12 4 Q8 4 7.5 7 Q5 7.5 5 10.5 Q3.5 11.5 4 14 Q3.5 16 5.5 17.5 Q5.5 20 8.5 20 Q10 21 12 20" stroke="currentColor" stroke-width="1.2" fill="none"/><path d="M12 4 Q16 4 16.5 7 Q19 7.5 19 10.5 Q20.5 11.5 20 14 Q20.5 16 18.5 17.5 Q18.5 20 15.5 20 Q14 21 12 20" stroke="currentColor" stroke-width="1.2" fill="none"/><line x1="12" y1="4" x2="12" y2="20" stroke="currentColor" stroke-width="1.2"/><path d="M7.5 10 Q9 11 9.5 13" stroke="currentColor" stroke-width="1.2" fill="none"/><path d="M16.5 10 Q15 11 14.5 13" stroke="currentColor" stroke-width="1.2" fill="none"/></svg>
